<?xml version="1.0" encoding="utf-8"?>
<!-- Generator: Adobe Illustrator 22.0.1, SVG Export Plug-In . SVG Version: 6.00 Build 0)  -->
<svg version="1.1" xmlns="http://www.w3.org/2000/svg" xmlns:xlink="http://www.w3.org/1999/xlink" x="0px" y="0px"
	 viewBox="0 0 500 500" style="enable-background:new 0 0 500 500;" xml:space="preserve">
<style type="text/css">
	.st0{fill:none;stroke:#FFFFFF;stroke-width:0.3;stroke-miterlimit:10;}
	.st1{fill:none;stroke:#FFFFFF;stroke-width:0.5;stroke-miterlimit:10;}
	.st2{fill:none;stroke:#FFFFFF;stroke-width:0.8;stroke-miterlimit:10;}
	.st3{fill:none;stroke:#FFFFFF;stroke-width:0.7;stroke-miterlimit:10;}
	.st4{fill:none;stroke:#FFFFFF;stroke-width:0.4;stroke-miterlimit:10;}
	.st5{fill:none;stroke:#FFFFFF;stroke-miterlimit:10;}
	.st6{fill:none;stroke:#FFFFFF;stroke-width:0.2;stroke-miterlimit:10;}
</style>
<g id="phone">
	<circle id="button" class="st0" cx="310.1" cy="281.7" r="0.7"/>
	<path id="border" class="st1" d="M313.4,283.2h-6.7c-0.4,0-0.8-0.4-0.8-0.8v-15.7c0-0.4,0.4-0.8,0.8-0.8h6.7c0.4,0,0.8,0.4,0.8,0.8
		v15.7C314.2,282.9,313.9,283.2,313.4,283.2z"/>
	<line id="line-bottom" class="st0" x1="305.9" y1="280.4" x2="314" y2="280.4"/>
	<line id="line-top" class="st0" x1="309.3" y1="267.5" x2="311" y2="267.5"/>
</g>
<g id="photo">
	<path id="border_1_" class="st1" d="M324,245.5h-16.3c-0.3,0-0.6-0.3-0.6-0.6v-17.8c0-0.3,0.3-0.6,0.6-0.6H324
		c0.3,0,0.6,0.3,0.6,0.6v17.8C324.6,245.3,324.3,245.5,324,245.5z"/>
	<path id="border-center" class="st0" d="M322.1,240.8h-12.5c-0.2,0-0.3-0.1-0.3-0.3v-11.5c0-0.2,0.1-0.3,0.3-0.3h12.5
		c0.2,0,0.3,0.1,0.3,0.3v11.5C322.4,240.7,322.2,240.8,322.1,240.8z"/>
</g>
<g id="mouse">
	<path id="border_2_" class="st1" d="M294.6,299.6h-0.5c-2.3,0-4.1-1.9-4.1-4.1v-8.7c0-2.3,1.9-4.1,4.1-4.1h0.5
		c2.3,0,4.1,1.9,4.1,4.1v8.7C298.8,297.7,296.9,299.6,294.6,299.6z"/>
	<path id="wheel" class="st0" d="M294.4,287.2L294.4,287.2c-0.3,0-0.5-0.2-0.5-0.5v-1.3c0-0.3,0.2-0.5,0.5-0.5l0,0
		c0.3,0,0.5,0.2,0.5,0.5v1.3C294.9,286.9,294.7,287.2,294.4,287.2z"/>
</g>
<g id="headphones">
	<path id="hoop-bottom" class="st1" d="M178.3,239.6C178.3,239.6,178.3,239.6,178.3,239.6L178.3,239.6c0.1-0.5,0.1-1.1,0.1-1.6
		c0-5.8-4.7-10.5-10.5-10.5c-5.8,0-10.5,4.7-10.5,10.5c0,0.5,0,0.9,0.1,1.4"/>
	<path id="hoop-top" class="st1" d="M178.3,239.6C178.3,239.6,178.3,239.6,178.3,239.6c0.4-1.2,0.6-2.4,0.6-3.7c0-6.1-4.9-11-11-11
		c-6.1,0-11,4.9-11,11c0,1.2,0.2,2.4,0.6,3.5"/>
	<path id="right-embouchure" class="st2" d="M177.7,240.2c-0.5-1.6-1.1-1.9-1.3-2c-0.1-0.1-0.5-0.2-1-0.1c-0.4,0.2-0.7,0.6-0.8,1.1
		c-0.1,0.4-0.2,0.7-0.2,0.8c-0.3,3-0.3,3.5-0.4,4.5c0,1,0.1,1.5,0.3,2.1c0,0.1,0.4,0.4,0.8,0.5c0.6,0.1,1.1-0.2,1.2-0.3
		c0.3-0.2,0.5-0.5,0.6-0.7C178.6,243,177.7,240.2,177.7,240.2z"/>
	<path id="right-bowl" class="st1" d="M177.6,239.3c0.4,0,1.2,0.5,1.6,1.6c0.2,0.8,0.1,2.7-0.2,3.6c-0.5,1.2-1.4,1.4-1.9,1.4"/>
	<path id="left-embouchure" class="st2" d="M158.2,240.1c0.5-1.6,1.1-1.9,1.3-2c0.1-0.1,0.5-0.2,1-0.1c0.4,0.2,0.7,0.6,0.8,1.1
		c0.1,0.4,0.2,0.7,0.2,0.8c0.3,3,0.3,3.5,0.4,4.5c0,1-0.1,1.5-0.3,2.1c0,0.1-0.4,0.4-0.8,0.5c-0.6,0.1-1.1-0.2-1.2-0.3
		c-0.3-0.2-0.5-0.5-0.6-0.7C157.4,243,158.2,240.1,158.2,240.1z"/>
	<path id="left-bowl" class="st1" d="M158.3,239.3c-0.4,0-1.2,0.5-1.6,1.6c-0.2,0.8-0.1,2.7,0.2,3.6c0.5,1.2,1.4,1.4,1.9,1.4"/>
</g>
<g id="bag">
	<line id="bottom-border" class="st2" x1="258.7" y1="242.8" x2="234.8" y2="242.6"/>
	<path id="right-border" class="st2" d="M264,225.4h7.4c0.2,0,0.4,0.2,0.4,0.4l0.8,5.1c0,0.1,0,0.4,0,0.5l-4.2,11.2
		c-0.1,0.2-0.2,0.3-0.4,0.2l-5.6-0.1"/>
	<path id="right-belt-bottom" class="st1" d="M263.8,237.1l-1.5,5.9c0,0.2-0.2,0.3-0.4,0.3h-2.9c-0.2,0-0.4-0.2-0.4-0.5l1-6.1"/>
	<path id="right-belt-top" class="st2" d="M263.6,224.9l-3.4,0c-0.2,0-0.4,0.2-0.4,0.5l0.7,6.3c0,0.1,0,0.1,0,0.2l-0.8,5.2
		c0,0.2,0,0.4,0.2,0.5l1.2,1.3c0.2,0.3,0.6,0.3,0.9,0.1l1.8-1.5c0.1-0.1,0.2-0.2,0.2-0.3l1.4-5.2c0-0.1,0-0.3,0-0.4l-1.3-6.3
		C263.9,225,263.8,224.9,263.6,224.9z"/>
	<path id="left-belt-bottom" class="st1" d="M229.7,236.9l1.5,5.9c0,0.2,0.2,0.3,0.4,0.3h2.9c0.2,0,0.4-0.2,0.4-0.5l-1-6.1"/>
	<path id="left-belt-top" class="st3" d="M230,224.7l3.4,0c0.2,0,0.4,0.2,0.4,0.5l-0.7,6.3c0,0.1,0,0.1,0,0.2l0.8,5.2
		c0,0.2,0,0.4-0.2,0.5l-1.2,1.3c-0.2,0.3-0.6,0.3-0.9,0.1l-1.8-1.5c-0.1-0.1-0.2-0.2-0.2-0.3l-1.4-5.2c0-0.1,0-0.3,0-0.4l1.3-6.3
		C229.6,224.8,229.8,224.7,230,224.7z"/>
	<path id="left-border" class="st2" d="M229.5,225.4h-6.9c-0.3,0-0.6,0.2-0.7,0.6l-0.9,5.3c0,0.1,0,0.3,0,0.4l4,10.5
		c0.1,0.1,0.2,0.2,0.4,0.2l5.8,0.1"/>
	<line id="center-border-right" class="st1" x1="272.6" y1="231.4" x2="265.2" y2="231.4"/>
	<line id="center-border-left" class="st1" x1="228.3" y1="231.4" x2="221" y2="231.4"/>
	<line id="center-border-center" class="st1" x1="260.4" y1="231.4" x2="233.1" y2="231.4"/>
	<line id="top-border-left" class="st2" x1="239.5" y1="225.4" x2="233.7" y2="225.4"/>
	<line id="top-border-roght" class="st2" x1="259.8" y1="225.4" x2="254.2" y2="225.4"/>
	<path class="st4" d="M253.1,227.7h-12.6c-0.6,0-1-0.4-1-1v-2.3c0-0.6,0.4-1,1-1h12.6c0.6,0,1,0.4,1,1v2.3
		C254.1,227.2,253.7,227.7,253.1,227.7z"/>
	<path class="st0" d="M253.9,227.3v1.3c0,0.6-0.5,1-1,1c-0.6,0-1-0.5-1-1v-0.9"/>
	<path class="st0" d="M241.9,227.7v0.9c0,0.6-0.5,1-1,1c-0.6,0-1-0.5-1-1v-1.2"/>
</g>
<g id="notepad">
	<path id="border_3_" class="st5" d="M204.5,299.8h-16.7c-1.1,0-2-0.9-2-2v-26.1c0-0.3,0.2-0.5,0.5-0.5h18.2c0.3,0,0.5,0.2,0.5,0.5
		v27.6C205,299.5,204.8,299.8,204.5,299.8z"/>
	<line id="lone-vertical" class="st0" x1="189" y1="271.2" x2="189" y2="296.5"/>
	<line id="line-horizontal" class="st0" x1="185.8" y1="296.5" x2="205" y2="296.5"/>
	<path class="st0" d="M196.1,299.8v4.5c0,0.2,0.2,0.3,0.3,0.1l1.6-1.6c0.1-0.1,0.2-0.1,0.3,0l1.7,1.6c0.1,0.1,0.3,0,0.3-0.1v-4.5"/>
	<path id="title" class="st6" d="M201.8,276.4H192c-0.1,0-0.2-0.1-0.2-0.2v-1.6c0-0.1,0.1-0.2,0.2-0.2h9.8c0.1,0,0.2,0.1,0.2,0.2
		v1.6C202,276.3,201.9,276.4,201.8,276.4z"/>
</g>
<g id="noutbook">
	<path id="border_4_" class="st2" d="M219.4,338.1v32.2c0,0.2,0.2,0.4,0.4,0.4h47.5c0.2,0,0.4-0.2,0.4-0.4v-32.2
		c0-0.1,0-0.2,0.1-0.4L274,322c0.1-0.2,0.1-0.3,0.1-0.5l-0.2-1.5c0-0.2-0.2-0.4-0.4-0.4h-59.3c-0.2,0-0.4,0.2-0.4,0.4l-0.1,1.7
		c0,0.1,0,0.3,0.1,0.4l5.7,15.6C219.4,337.8,219.4,338,219.4,338.1z"/>
	<line id="line-top_1_" class="st0" x1="213.6" y1="321.7" x2="274.1" y2="321.7"/>
	<line id="line-center" class="st0" x1="219.4" y1="338.1" x2="267.7" y2="338"/>
	<ellipse id="camera" class="st6" cx="243.6" cy="324.7" rx="0.9" ry="0.4"/>
	<path id="touchpad" class="st0" d="M250.3,366.6h-13.4c-0.3,0-0.5-0.2-0.5-0.5v-6.5c0-0.3,0.2-0.5,0.5-0.5h13.4
		c0.3,0,0.5,0.2,0.5,0.5v6.5C250.8,366.4,250.5,366.6,250.3,366.6z"/>
	<path id="button_2_" class="st0" d="M231.6,347h-1.5c-0.3,0-0.5-0.2-0.5-0.5V345c0-0.3,0.2-0.5,0.5-0.5h1.5c0.3,0,0.5,0.2,0.5,0.5
		v1.5C232.1,346.8,231.9,347,231.6,347z"/>
	<path id="button_3_" class="st0" d="M235.1,347h-1.5c-0.3,0-0.5-0.2-0.5-0.5V345c0-0.3,0.2-0.5,0.5-0.5h1.5c0.3,0,0.5,0.2,0.5,0.5
		v1.5C235.6,346.8,235.4,347,235.1,347z"/>
	<path id="button_4_" class="st0" d="M238.5,347h-1.5c-0.3,0-0.5-0.2-0.5-0.5V345c0-0.3,0.2-0.5,0.5-0.5h1.5c0.3,0,0.5,0.2,0.5,0.5
		v1.5C239,346.8,238.8,347,238.5,347z"/>
	<path id="button_5_" class="st0" d="M242.1,347h-1.5c-0.3,0-0.5-0.2-0.5-0.5V345c0-0.3,0.2-0.5,0.5-0.5h1.5c0.3,0,0.5,0.2,0.5,0.5
		v1.5C242.6,346.8,242.4,347,242.1,347z"/>
	<path id="button_6_" class="st0" d="M245.7,347h-1.5c-0.3,0-0.5-0.2-0.5-0.5V345c0-0.3,0.2-0.5,0.5-0.5h1.5c0.3,0,0.5,0.2,0.5,0.5
		v1.5C246.2,346.8,246,347,245.7,347z"/>
	<path id="button_7_" class="st0" d="M249.2,347h-1.5c-0.3,0-0.5-0.2-0.5-0.5V345c0-0.3,0.2-0.5,0.5-0.5h1.5c0.3,0,0.5,0.2,0.5,0.5
		v1.5C249.7,346.8,249.5,347,249.2,347z"/>
	<path id="button_8_" class="st0" d="M252.7,347h-1.5c-0.3,0-0.5-0.2-0.5-0.5V345c0-0.3,0.2-0.5,0.5-0.5h1.5c0.3,0,0.5,0.2,0.5,0.5
		v1.5C253.2,346.8,253,347,252.7,347z"/>
	<path id="button_9_" class="st0" d="M256.2,347h-1.5c-0.3,0-0.5-0.2-0.5-0.5V345c0-0.3,0.2-0.5,0.5-0.5h1.5c0.3,0,0.5,0.2,0.5,0.5
		v1.5C256.7,346.8,256.5,347,256.2,347z"/>
	<path id="button_10_" class="st0" d="M259.7,347h-1.5c-0.3,0-0.5-0.2-0.5-0.5V345c0-0.3,0.2-0.5,0.5-0.5h1.5c0.3,0,0.5,0.2,0.5,0.5
		v1.5C260.2,346.8,260,347,259.7,347z"/>
	<path id="button_11_" class="st0" d="M263.3,347h-1.5c-0.3,0-0.5-0.2-0.5-0.5V345c0-0.3,0.2-0.5,0.5-0.5h1.5c0.3,0,0.5,0.2,0.5,0.5
		v1.5C263.8,346.8,263.5,347,263.3,347z"/>
	<path id="button_12_" class="st0" d="M233.4,350.6h-1.5c-0.3,0-0.5-0.2-0.5-0.5v-1.5c0-0.3,0.2-0.5,0.5-0.5h1.5
		c0.3,0,0.5,0.2,0.5,0.5v1.5C233.9,350.3,233.7,350.6,233.4,350.6z"/>
	<path id="button_13_" class="st0" d="M236.9,350.6h-1.5c-0.3,0-0.5-0.2-0.5-0.5v-1.5c0-0.3,0.2-0.5,0.5-0.5h1.5
		c0.3,0,0.5,0.2,0.5,0.5v1.5C237.4,350.3,237.2,350.6,236.9,350.6z"/>
	<path id="button_14_" class="st0" d="M240.4,350.6h-1.5c-0.3,0-0.5-0.2-0.5-0.5v-1.5c0-0.3,0.2-0.5,0.5-0.5h1.5
		c0.3,0,0.5,0.2,0.5,0.5v1.5C240.9,350.3,240.7,350.6,240.4,350.6z"/>
	<path id="button_15_" class="st0" d="M244,350.6h-1.5c-0.3,0-0.5-0.2-0.5-0.5v-1.5c0-0.3,0.2-0.5,0.5-0.5h1.5
		c0.3,0,0.5,0.2,0.5,0.5v1.5C244.5,350.3,244.2,350.6,244,350.6z"/>
	<path id="button_16_" class="st0" d="M247.5,350.6h-1.5c-0.3,0-0.5-0.2-0.5-0.5v-1.5c0-0.3,0.2-0.5,0.5-0.5h1.5
		c0.3,0,0.5,0.2,0.5,0.5v1.5C248,350.3,247.8,350.6,247.5,350.6z"/>
	<path id="button_17_" class="st0" d="M251,350.6h-1.5c-0.3,0-0.5-0.2-0.5-0.5v-1.5c0-0.3,0.2-0.5,0.5-0.5h1.5
		c0.3,0,0.5,0.2,0.5,0.5v1.5C251.5,350.3,251.3,350.6,251,350.6z"/>
	<path id="button_18_" class="st0" d="M254.5,350.6h-1.5c-0.3,0-0.5-0.2-0.5-0.5v-1.5c0-0.3,0.2-0.5,0.5-0.5h1.5
		c0.3,0,0.5,0.2,0.5,0.5v1.5C255,350.3,254.8,350.6,254.5,350.6z"/>
	<path id="button_19_" class="st0" d="M230.7,354.1h-1.5c-0.3,0-0.5-0.2-0.5-0.5v-1.5c0-0.3,0.2-0.5,0.5-0.5h1.5
		c0.3,0,0.5,0.2,0.5,0.5v1.5C231.2,353.9,231,354.1,230.7,354.1z"/>
	<path id="button_20_" class="st0" d="M253.7,354.1h-1.5c-0.3,0-0.5-0.2-0.5-0.5v-1.5c0-0.3,0.2-0.5,0.5-0.5h1.5
		c0.3,0,0.5,0.2,0.5,0.5v1.5C254.2,353.9,254,354.1,253.7,354.1z"/>
	<path id="button_21_" class="st0" d="M257.9,354.1h-2.2c-0.3,0-0.5-0.2-0.5-0.5v-1.5c0-0.3,0.2-0.5,0.5-0.5h2.2
		c0.3,0,0.5,0.2,0.5,0.5v1.5C258.4,353.9,258.2,354.1,257.9,354.1z"/>
	<path id="button_22_" class="st0" d="M235.1,354.1h-2.2c-0.3,0-0.5-0.2-0.5-0.5v-1.5c0-0.3,0.2-0.5,0.5-0.5h2.2
		c0.3,0,0.5,0.2,0.5,0.5v1.5C235.6,353.9,235.4,354.1,235.1,354.1z"/>
	<path id="button_23_" class="st0" d="M227.1,354.1h-3.3c-0.3,0-0.5-0.2-0.5-0.5v-1.5c0-0.3,0.2-0.5,0.5-0.5h3.3
		c0.3,0,0.5,0.2,0.5,0.5v1.5C227.6,353.9,227.4,354.1,227.1,354.1z"/>
	<path id="button_24_" class="st0" d="M229.9,350.6h-6c-0.3,0-0.5-0.2-0.5-0.5v-1.5c0-0.3,0.2-0.5,0.5-0.5h6c0.3,0,0.5,0.2,0.5,0.5
		v1.5C230.4,350.3,230.2,350.6,229.9,350.6z"/>
	<path id="button_25_" class="st0" d="M228,347h-4.2c-0.3,0-0.5-0.2-0.5-0.5V345c0-0.3,0.2-0.5,0.5-0.5h4.2c0.3,0,0.5,0.2,0.5,0.5
		v1.5C228.5,346.8,228.3,347,228,347z"/>
	<path id="button_26_" class="st0" d="M250.2,354.1h-13c-0.3,0-0.5-0.2-0.5-0.5v-1.5c0-0.3,0.2-0.5,0.5-0.5h13
		c0.3,0,0.5,0.2,0.5,0.5v1.5C250.7,353.9,250.5,354.1,250.2,354.1z"/>
	<path id="button_27_" class="st0" d="M263.3,350.6h-6.6c-0.3,0-0.5-0.2-0.5-0.5v-1.5c0-0.3,0.2-0.5,0.5-0.5h6.6
		c0.3,0,0.5,0.2,0.5,0.5v1.5C263.8,350.3,263.5,350.6,263.3,350.6z"/>
	<path id="button_28_" class="st0" d="M263.3,354.1H260c-0.3,0-0.5-0.2-0.5-0.5v-1.5c0-0.3,0.2-0.5,0.5-0.5h3.3
		c0.3,0,0.5,0.2,0.5,0.5v1.5C263.8,353.9,263.5,354.1,263.3,354.1z"/>
</g>
</svg>
