<svg xmlns="http://www.w3.org/2000/svg" viewBox="0 0 52.52 20.37"><defs><style>.cls-1,.cls-2,.cls-3,.cls-4,.cls-5{fill:none;stroke:#fff;stroke-miterlimit:10;}.cls-1{stroke-width:0.8px;}.cls-2{stroke-width:0.5px;}.cls-3{stroke-width:0.7px;}.cls-4{stroke-width:0.4px;}.cls-5{stroke-width:0.3px;}</style></defs><title>bag</title><g id="Слой_2" data-name="Слой 2"><g id="svg"><g id="bag"><line id="bottom-border" class="cls-1" x1="38.17" y1="19.64" x2="14.28" y2="19.42"/><path id="right-border" class="cls-1" d="M43.5,2.26h7.44a.39.39,0,0,1,.4.35l.75,5.14a1.63,1.63,0,0,1,0,.54l-4.2,11.18a.37.37,0,0,1-.37.25l-5.65,0"/><path id="right-belt-bottom" class="cls-2" d="M43.3,13.89l-1.48,5.92a.4.4,0,0,1-.39.31H38.56a.39.39,0,0,1-.39-.46l.95-6.08"/><path id="right-belt-top" class="cls-1" d="M43,1.66l-3.37,0a.4.4,0,0,0-.4.46l.68,6.34a1,1,0,0,1,0,.17l-.83,5.19a.64.64,0,0,0,.15.53l1.19,1.34a.64.64,0,0,0,.9.06l1.76-1.51a.59.59,0,0,0,.21-.33l1.36-5.22V8.23L43.41,2A.4.4,0,0,0,43,1.66Z"/><path id="left-belt-bottom" class="cls-2" d="M9.15,13.74l1.48,5.92A.4.4,0,0,0,11,20h2.87a.4.4,0,0,0,.4-.46l-1-6.07"/><path id="left-belt-top" class="cls-3" d="M9.43,1.5l3.38,0a.41.41,0,0,1,.4.46l-.68,6.34a.48.48,0,0,0,0,.17l.84,5.19a.64.64,0,0,1-.16.53L12,15.51a.64.64,0,0,1-.9.06L9.36,14.06a.69.69,0,0,1-.21-.32L7.8,8.52V8.07L9,1.81A.4.4,0,0,1,9.43,1.5Z"/><path id="left-border" class="cls-1" d="M9,2.26H2a.72.72,0,0,0-.7.59L.42,8.17a.7.7,0,0,0,0,.43l4,10.48a.39.39,0,0,0,.36.25l5.75.05"/><line id="center-border-right" class="cls-2" x1="52.05" y1="8.17" x2="44.66" y2="8.17"/><line id="center-border-left" class="cls-2" x1="7.79" y1="8.17" x2="0.42" y2="8.17"/><line id="center-border-center" class="cls-2" x1="39.9" y1="8.17" x2="12.54" y2="8.17"/><line id="top-border-left" class="cls-1" x1="19" y1="2.26" x2="13.18" y2="2.26"/><line id="top-border-roght" class="cls-1" x1="39.29" y1="2.26" x2="33.64" y2="2.26"/><rect class="cls-4" x="18.94" y="0.2" width="14.64" height="4.29" rx="1" ry="1"/><path class="cls-5" d="M33.38,4.09V5.36a1,1,0,0,1-1,1,1,1,0,0,1-1-1V4.5"/><path class="cls-5" d="M21.32,4.5v.89a1,1,0,1,1-2.06,0V4.23"/></g></g></g></svg>