<svg xmlns="http://www.w3.org/2000/svg" viewBox="0 0 23.19 22.79"><defs><style>.cls-1,.cls-2{fill:none;stroke:#fff;stroke-miterlimit:10;}.cls-1{stroke-width:0.5px;}.cls-2{stroke-width:0.8px;}</style></defs><title>headphones</title><g id="Слой_2" data-name="Слой 2"><g id="svg"><g id="headphones"><path id="hoop-bottom" class="cls-1" d="M22,15v0h0a10.18,10.18,0,0,0,.12-1.57A10.5,10.5,0,1,0,1.16,14.75"/><path id="hoop-top" class="cls-1" d="M22,15v0a10.72,10.72,0,0,0,.64-3.69,11,11,0,1,0-21.43,3.5"/><path id="right-embouchure" class="cls-2" d="M21.34,15.5c-.47-1.57-1.14-1.91-1.3-2a1.25,1.25,0,0,0-1-.09,1.52,1.52,0,0,0-.82,1.09c-.11.42-.18.74-.19.81-.29,3-.32,3.5-.36,4.48A4.34,4.34,0,0,0,18,21.87a1.27,1.27,0,0,0,.82.5A1.54,1.54,0,0,0,20,22a1.94,1.94,0,0,0,.59-.71A8.59,8.59,0,0,0,21.34,15.5Z"/><path id="right-bowl" class="cls-1" d="M21.24,14.64c.45-.05,1.23.46,1.57,1.59a7,7,0,0,1-.24,3.56,2.05,2.05,0,0,1-1.95,1.37"/><path id="left-embouchure" class="cls-2" d="M1.86,15.46c.46-1.58,1.13-1.92,1.3-2a1.27,1.27,0,0,1,1-.08,1.52,1.52,0,0,1,.82,1.08c.11.42.18.75.19.82.29,3,.32,3.49.36,4.48a4.15,4.15,0,0,1-.31,2.05,1.27,1.27,0,0,1-.82.51A1.6,1.6,0,0,1,3.16,22a2.07,2.07,0,0,1-.59-.72A8.52,8.52,0,0,1,1.86,15.46Z"/><path id="left-bowl" class="cls-1" d="M2,14.59c-.45,0-1.23.46-1.57,1.6a7,7,0,0,0,.24,3.56,2.06,2.06,0,0,0,1.95,1.36"/></g></g></g></svg>