<svg xmlns="http://www.w3.org/2000/svg" viewBox="0 0 20.17 33.96"><defs><style>.cls-1,.cls-2{fill:none;stroke:#fff;stroke-miterlimit:10;}.cls-2{stroke-width:0.3px;}</style></defs><title>notepad</title><g id="Слой_2" data-name="Слой 2"><g id="svg"><g id="notepad"><path id="border" class="cls-1" d="M19,29.08H2.5a2,2,0,0,1-2-2V1.25A.74.74,0,0,1,1.25.5H19a.65.65,0,0,1,.65.65V28.43A.66.66,0,0,1,19,29.08Z"/><line id="lone-vertical" class="cls-2" x1="3.63" y1="0.5" x2="3.63" y2="25.79"/><line id="line-horizontal" class="cls-2" x1="0.5" y1="25.79" x2="19.67" y2="25.79"/><path class="cls-2" d="M10.79,29.08v4.53a.2.2,0,0,0,.34.14l1.65-1.61a.19.19,0,0,1,.27,0l1.69,1.63a.2.2,0,0,0,.34-.15V29.08"/></g></g></g></svg>